<svg width="18" height="18" viewBox="0 0 18 18" fill="none" xmlns="http://www.w3.org/2000/svg">
    <path
        d="M15.6667 0.666748H7.33332C6.41416 0.666748 5.66666 1.41425 5.66666 2.33341V5.66675H2.33332C1.41416 5.66675 0.666656 6.41425 0.666656 7.33342V15.6667C0.666656 16.5859 1.41416 17.3334 2.33332 17.3334H10.6667C11.5858 17.3334 12.3333 16.5859 12.3333 15.6667V12.3334H15.6667C16.5858 12.3334 17.3333 11.5859 17.3333 10.6667V2.33341C17.3333 1.41425 16.5858 0.666748 15.6667 0.666748ZM2.33332 15.6667V7.33342H10.6667L10.6683 15.6667H2.33332ZM15.6667 10.6667H12.3333V7.33342C12.3333 6.41425 11.5858 5.66675 10.6667 5.66675H7.33332V2.33341H15.6667V10.6667Z"
        fill="#6F7B8B" />
</svg>