<svg width="16" height="16" viewBox="0 0 16 16" fill="none" xmlns="http://www.w3.org/2000/svg">
<g id="bxs-help-circle">
<path id="Vector" d="M7.99998 1.3335C4.32398 1.3335 1.33331 4.32416 1.33331 8.00016C1.33331 11.6762 4.32398 14.6668 7.99998 14.6668C11.676 14.6668 14.6666 11.6762 14.6666 8.00016C14.6666 4.32416 11.676 1.3335 7.99998 1.3335ZM8.66665 12.0002H7.33331V10.6668H8.66665V12.0002ZM9.31731 8.7435C9.18665 8.84883 9.06065 8.9495 8.96065 9.0495C8.68865 9.32083 8.66731 9.5675 8.66665 9.57816V9.66683H7.33331V9.5555C7.33331 9.47683 7.35265 8.77083 8.01731 8.10616C8.14731 7.97616 8.30865 7.84416 8.47798 7.70683C8.96731 7.31016 9.28865 7.02083 9.28865 6.62216C9.2809 6.28538 9.14165 5.965 8.90069 5.72958C8.65973 5.49415 8.3362 5.36239 7.99932 5.36248C7.66244 5.36256 7.33898 5.4945 7.09814 5.73004C6.8573 5.96559 6.71822 6.28604 6.71065 6.62283H5.37731C5.37731 5.17683 6.55398 4.00016 7.99998 4.00016C9.44598 4.00016 10.6226 5.17683 10.6226 6.62283C10.6226 7.6875 9.83665 8.32283 9.31731 8.7435Z" fill="#D1DBD2"/>
</g>
</svg>
