<svg width="165" height="109" viewBox="0 0 165 109" fill="none" xmlns="http://www.w3.org/2000/svg">
<path d="M31.8579 9.57557C29.4968 8.50235 13.8339 34.3229 13.1146 35.9414C12.7393 36.786 11.5689 39.6012 13.7181 38.5426C15.8751 37.4802 17.8261 34.9828 19.4616 33.3402C22.7873 30 25.9477 26.5087 29.1589 23.0602C33.6617 18.2247 38.3719 14.1944 44.3915 11.3652C45.377 10.902 50.6608 7.4464 50.8217 10.2623C50.9419 12.3647 50.0696 14.6681 49.4275 16.6092C47.5955 22.1478 45.521 27.6726 43.1638 33.0073C36.3953 48.3253 26.8313 62.35 18.7956 77.0198C18.0517 78.3779 6.92292 98.6378 9.84748 99.848C11.3285 100.461 14.4539 98.0594 15.3829 97.3924C19.8202 94.2067 23.5109 89.9588 27.1195 85.9055C39.6115 71.8744 51.3098 57.348 64.9099 44.3277C76.0658 33.6475 87.5114 23.7665 99.7453 14.4242C101.89 12.7866 104.067 9.57558 106.862 9.57558C108.493 9.57558 107.079 13.3398 106.904 13.904C105.283 19.1126 102.567 23.8749 99.7453 28.5124C95.2219 35.9469 90.3162 43.1803 85.345 50.3209C77.9211 60.9848 68.8137 70.5229 61.8092 81.4522C58.777 86.1836 56.0134 91.3265 54.0472 96.6017C53.3314 98.5221 53.459 99.447 54.9837 97.7046C71.3662 78.9817 90.8496 63.3464 111.981 50.1961C113.2 49.4375 119.425 44.1927 119.723 48.2816C120.119 53.728 118.062 58.7469 116.31 63.764C116.202 64.0725 115.037 68.2759 116.351 66.6982C118.663 63.9238 120.42 60.5985 123.468 58.5199C126.8 56.2482 125.932 67.5753 126.174 69.0496C126.457 70.7767 125.856 74.2601 127.006 75.7088C128.436 77.5093 134.286 73.5828 134.755 73.0209C138.988 67.9485 142.606 65.1173 146.567 60.3096C149.957 58.6984 151.801 45.7048 155.742 38.5426" stroke="#E1F4E3" stroke-width="17" stroke-linecap="round"/>
</svg>
