<svg width="80" height="19" viewBox="0 0 80 19" fill="none" xmlns="http://www.w3.org/2000/svg">
<path d="M0.630682 18L3.52841 0.545454H10.0739C11.4148 0.545454 12.5 0.795454 13.3295 1.29545C14.1591 1.78977 14.7358 2.47443 15.0597 3.34943C15.3835 4.21875 15.4517 5.21023 15.2642 6.32386C15.0824 7.44318 14.6818 8.4375 14.0625 9.30682C13.4489 10.1761 12.6392 10.8608 11.6335 11.3608C10.6278 11.8551 9.4517 12.1023 8.10511 12.1023H3.76705L4.2017 9.50284H8.11364C8.89773 9.50284 9.5625 9.36648 10.108 9.09375C10.6591 8.82102 11.0938 8.44602 11.4119 7.96875C11.7301 7.49148 11.9403 6.94318 12.0426 6.32386C12.1392 5.70455 12.108 5.15909 11.9489 4.6875C11.7898 4.21591 11.4801 3.84943 11.0199 3.58807C10.5653 3.32102 9.94318 3.1875 9.15341 3.1875H6.25568L3.79261 18H0.630682ZM27.9531 0.545454H31.1151L29.223 11.9489C29.0185 13.1989 28.5412 14.2983 27.7912 15.2472C27.0469 16.196 26.098 16.9375 24.9446 17.4716C23.7912 18 22.5071 18.2642 21.0923 18.2642C19.6662 18.2642 18.4673 18 17.4957 17.4716C16.5241 16.9375 15.8224 16.196 15.3906 15.2472C14.9645 14.2983 14.8537 13.1989 15.0582 11.9489L16.9503 0.545454H20.1122L18.2628 11.6847C18.1435 12.4119 18.1974 13.0597 18.4247 13.6278C18.6577 14.1903 19.0384 14.6335 19.5668 14.9574C20.1009 15.2812 20.7685 15.4432 21.5696 15.4432C22.3707 15.4432 23.0923 15.2812 23.7344 14.9574C24.3764 14.6335 24.902 14.1903 25.3111 13.6278C25.7202 13.0597 25.9844 12.4119 26.1037 11.6847L27.9531 0.545454ZM29.6541 18L32.5518 0.545454H35.7138L33.2592 15.3494H40.9467L40.5036 18H29.6541ZM52.8132 5.42898C52.8359 4.6392 52.5945 4.03409 52.0888 3.61364C51.5888 3.19318 50.87 2.98295 49.9325 2.98295C49.2734 2.98295 48.6911 3.08239 48.1854 3.28125C47.6854 3.47443 47.282 3.74432 46.9751 4.09091C46.6683 4.43182 46.478 4.82102 46.4041 5.25852C46.3416 5.61648 46.3729 5.92898 46.4979 6.19602C46.6229 6.46307 46.8132 6.69034 47.0689 6.87784C47.3303 7.06534 47.6257 7.22159 47.9553 7.34659C48.2905 7.47159 48.6314 7.5767 48.978 7.66193L50.5462 8.07102C51.1712 8.22443 51.7678 8.43182 52.3359 8.69318C52.9041 8.94886 53.3956 9.27841 53.8104 9.68182C54.2308 10.0795 54.5376 10.5597 54.7308 11.1222C54.924 11.6847 54.9553 12.3437 54.8246 13.0994C54.6541 14.1222 54.2422 15.0227 53.5888 15.8011C52.9411 16.5739 52.0888 17.179 51.032 17.6165C49.9808 18.0483 48.7564 18.2642 47.3587 18.2642C46.0064 18.2642 44.8643 18.054 43.9325 17.6335C43.0007 17.2074 42.3189 16.5909 41.8871 15.7841C41.4609 14.9773 41.3246 13.9972 41.478 12.8438H44.5888C44.5263 13.4517 44.6257 13.9574 44.8871 14.3608C45.1541 14.7642 45.5376 15.0653 46.0376 15.2642C46.5376 15.4631 47.1172 15.5625 47.7763 15.5625C48.4638 15.5625 49.0859 15.4602 49.6428 15.2557C50.1996 15.0455 50.6541 14.7557 51.0064 14.3864C51.3643 14.0114 51.5831 13.5739 51.6626 13.0739C51.7422 12.625 51.6768 12.25 51.4666 11.9489C51.2564 11.6477 50.9297 11.3977 50.4865 11.1989C50.049 10.9943 49.5263 10.8125 48.9183 10.6534L47.0263 10.142C45.657 9.76705 44.6172 9.20455 43.907 8.45455C43.2024 7.70455 42.9524 6.70455 43.157 5.45454C43.3274 4.42045 43.7564 3.51989 44.4439 2.75284C45.1314 1.98011 45.9922 1.38068 47.0263 0.954545C48.0604 0.522727 49.1911 0.306818 50.4183 0.306818C51.657 0.306818 52.7053 0.522727 53.5632 0.954545C54.4268 1.38636 55.0575 1.98864 55.4553 2.76136C55.8587 3.52841 55.9922 4.41761 55.8558 5.42898H52.8132ZM54.8338 18L57.7315 0.545454H69.0838L68.6406 3.19602H60.4503L59.6662 7.93466H67.2685L66.8253 10.5852H59.223L58.4389 15.3494H66.6974L66.2543 18H54.8338Z" fill="white"/>
<path d="M73.9318 0.545454L71.6136 12.8693H68.8864L70.6506 0.545454H73.9318ZM69.5938 18.1875C69.071 18.1875 68.6392 18.0057 68.2983 17.642C67.9574 17.2784 67.7983 16.8352 67.821 16.3125C67.8438 15.8011 68.0511 15.3665 68.4432 15.0085C68.8352 14.6506 69.2869 14.4716 69.7983 14.4716C70.304 14.4716 70.733 14.6534 71.0852 15.017C71.4432 15.3807 71.6051 15.8125 71.571 16.3125C71.5483 16.6648 71.4403 16.983 71.2472 17.267C71.0597 17.5511 70.821 17.7756 70.5312 17.9403C70.2415 18.1051 69.929 18.1875 69.5938 18.1875ZM79.3381 0.545454L77.0199 12.8693H74.2926L76.0568 0.545454H79.3381ZM75 18.1875C74.4773 18.1875 74.0455 18.0057 73.7045 17.642C73.3636 17.2784 73.2045 16.8352 73.2273 16.3125C73.25 15.8011 73.4574 15.3665 73.8494 15.0085C74.2415 14.6506 74.6932 14.4716 75.2045 14.4716C75.7102 14.4716 76.1392 14.6534 76.4915 15.017C76.8494 15.3807 77.0114 15.8125 76.9773 16.3125C76.9545 16.6648 76.8466 16.983 76.6534 17.267C76.4659 17.5511 76.2273 17.7756 75.9375 17.9403C75.6477 18.1051 75.3352 18.1875 75 18.1875Z" fill="#5BB163"/>
</svg>
