<svg width="64" height="16" viewBox="0 0 64 16" fill="none" xmlns="http://www.w3.org/2000/svg">
<g id="Group 1171276967">
<g id="HABIT">
<path d="M9.24706 6.71689L8.82179 9.11024H3.07576L3.49113 6.71689H9.24706ZM5.32077 0.881845L2.82851 15.2815H0L2.48236 0.881845H5.32077ZM12.2931 0.881845L9.791 15.2815H6.99216L9.4943 0.881845H12.2931Z" fill="white"/>
<path d="M19.3446 3.59168L14.3502 15.2815H11.2844L18.148 0.881845H20.0765L19.3446 3.59168ZM19.5439 13.642L18.7216 3.35432L18.8798 0.881845H20.7094L22.4515 13.642H19.5439ZM20.7292 9.91132L20.304 12.3146H13.9744L14.3997 9.91132H20.7292Z" fill="white"/>
<path d="M29.8972 9.00146H26.9104L27.2763 6.9048L29.5906 6.92458C29.9796 6.91798 30.3224 6.84216 30.6191 6.69711C30.9158 6.54546 31.1532 6.33118 31.3312 6.05427C31.5092 5.77735 31.6246 5.44439 31.6773 5.05538C31.7235 4.71913 31.7235 4.42573 31.6773 4.17519C31.6378 3.91805 31.5224 3.71366 31.3312 3.56201C31.1466 3.40377 30.873 3.31476 30.5103 3.29498L28.8785 3.28509L26.8016 15.2815H23.9731L26.4555 0.881845L30.629 0.891735C31.2356 0.904921 31.7894 0.99393 32.2905 1.15876C32.7916 1.317 33.2169 1.55766 33.5663 1.88073C33.9224 2.1972 34.1894 2.5928 34.3674 3.06751C34.5454 3.54223 34.6114 4.10266 34.5652 4.7488C34.5125 5.48065 34.3147 6.09712 33.9718 6.59821C33.6355 7.09271 33.1872 7.47841 32.6268 7.75533C32.0729 8.03224 31.4466 8.19048 30.7477 8.23004L29.8972 9.00146ZM28.74 15.2815H19.6562L19.4844 12.8981L28.8785 12.908C29.2675 12.8948 29.6038 12.8025 29.8873 12.631C30.1708 12.4596 30.395 12.2289 30.5598 11.9388C30.7246 11.6421 30.8334 11.3025 30.8862 10.9201C30.9257 10.6498 30.9356 10.3729 30.9158 10.0893C30.896 9.79924 30.8136 9.55529 30.6686 9.35749C30.5235 9.1531 30.273 9.03772 29.9169 9.01135L27.3654 9.00146L27.7511 6.9048L30.6092 6.91469L31.0938 7.73555C31.7202 7.75533 32.2279 7.91357 32.6169 8.21026C33.0125 8.50037 33.296 8.88278 33.4674 9.35749C33.6388 9.83221 33.7015 10.3696 33.6553 10.9695C33.596 11.9058 33.3487 12.697 32.9136 13.3431C32.485 13.9827 31.9114 14.4706 31.1927 14.8068C30.4741 15.1365 29.6565 15.2947 28.74 15.2815Z" fill="white"/>
<path d="M39.5112 4.7488L37.9377 15.2815H35.1289L36.7025 4.7488H39.5112Z" fill="white"/>
<path d="M48.0946 0.881845L45.5924 15.2815H42.7738L45.276 0.881845H48.0946ZM54.4624 0.881845C53.0371 1.67257 52.3435 2.36844 51.8033 3.28509H41.4585L41.8738 0.881845H54.4624Z" fill="white"/>
<path d="M40.1466 0.881836L39.8065 3.35431H36.9978L37.3379 0.881836H40.1466Z" fill="white"/>
</g>
<path id="Union" fill-rule="evenodd" clip-rule="evenodd" d="M63.2049 7.67975L63.2051 7.67852C63.3197 7.07836 63.3679 6.47074 63.3499 5.85587C63.3377 5.23257 63.2407 4.63084 63.0584 4.05122C62.8803 3.46623 62.6 2.93969 62.2156 2.47388C61.8312 1.99573 61.3268 1.61602 60.7068 1.3358C60.0762 1.0458 59.3177 0.898482 58.443 0.883C57.5166 0.86747 56.6598 1.00729 55.8772 1.30587C55.1045 1.59573 54.4119 1.99677 53.8002 2.5076C53.1941 3.00884 52.6643 3.57886 52.2112 4.21595C51.7661 4.84526 51.3991 5.50511 51.1104 6.1953C50.8229 6.8826 50.6126 7.55883 50.4802 8.22389L50.4797 8.22683C50.3657 8.84936 50.3058 9.48413 50.2998 10.131V10.1328C50.2998 10.7856 50.3844 11.4121 50.5546 12.012C50.7264 12.623 51.0069 13.1731 51.3977 13.6599C51.7951 14.1548 52.3219 14.5453 52.973 14.8307C53.6389 15.1249 54.441 15.2716 55.3678 15.2819C55.8629 15.2871 56.3652 15.2375 56.8743 15.1342C57.4031 15.033 57.8767 14.8539 58.2914 14.5955L58.4219 14.5142L58.1418 12.9011L57.8065 13.0362C57.4283 13.1886 57.0362 13.3075 56.6299 13.3932L56.6265 13.394C56.2259 13.4832 55.8237 13.5252 55.4192 13.5206L55.4177 13.5205C54.7516 13.5158 54.2353 13.4002 53.8492 13.1917C53.4502 12.9763 53.1517 12.6909 52.9496 12.3319C52.7389 11.9577 52.5959 11.5435 52.5227 11.0877C52.4544 10.626 52.44 10.154 52.4801 9.67141C52.5207 9.18173 52.5874 8.72812 52.6795 8.31024L52.6804 8.30569C52.778 7.80682 52.9334 7.28662 53.1474 6.74491C53.3604 6.20565 53.6287 5.68252 53.9513 5.17698C54.271 4.67121 54.6498 4.21737 55.0873 3.81467C55.5186 3.41767 56.0095 3.10747 56.5605 2.88207L56.5625 2.88124C57.1017 2.65605 57.7077 2.5482 58.3864 2.56225C59.0483 2.57645 59.5608 2.69437 59.9427 2.89904L59.9449 2.90022C60.3402 3.10753 60.6423 3.38057 60.8553 3.722L60.856 3.7231C61.0746 4.0689 61.219 4.46198 61.286 4.9051L61.2864 4.90745C61.3606 5.36022 61.3835 5.82062 61.3549 6.28886C61.3259 6.76373 61.2708 7.21811 61.1899 7.65211L61.1895 7.65451C61.1556 7.85022 61.0953 8.11231 61.0077 8.44272C60.9223 8.75947 60.8054 9.08209 60.6565 9.41068L60.6553 9.41343C60.5182 9.72801 60.3381 9.98129 60.1193 10.1791C59.9256 10.3542 59.7035 10.4302 59.4346 10.4193C59.3206 10.4126 59.2879 10.3866 59.2775 10.375C59.2443 10.327 59.2187 10.2569 59.2141 10.1542C59.2088 10.0326 59.214 9.91086 59.2298 9.78902C59.2525 9.66039 59.2746 9.55603 59.296 9.47472L60.49 5.15402L60.5542 5.07934L60.5179 5.05295L60.5659 4.87926H60.2775C59.9483 4.64878 59.6085 4.45997 59.2578 4.31437C58.8619 4.1475 58.4111 4.06465 57.9124 4.05916C57.3794 4.04853 56.887 4.14379 56.4416 4.34826L56.4401 4.34895C56.0157 4.54668 55.6376 4.80776 55.3057 5.13008L55.304 5.13172C54.9831 5.44935 54.7063 5.80254 54.4733 6.1906L54.472 6.19277C54.2481 6.57567 54.0604 6.96894 53.909 7.37252C53.7588 7.76801 53.6494 8.13869 53.5821 8.48411C53.5204 8.77612 53.4843 9.11292 53.4723 9.49301L53.4722 9.49603C53.4661 9.88598 53.5123 10.2643 53.6115 10.6306L53.6123 10.6336C53.7217 11.0136 53.9177 11.3402 54.2057 11.6058L54.2078 11.6077C54.5274 11.8958 54.968 12.0368 55.4934 12.0534L55.495 12.0534C55.9106 12.0646 56.2882 11.9921 56.6165 11.8271C56.9087 11.6802 57.1668 11.4915 57.3906 11.2628C57.5317 11.4728 57.7177 11.6503 57.9484 11.7927L57.952 11.7949C58.2486 11.9719 58.6183 12.0574 59.0396 12.0684C59.7204 12.0845 60.3222 11.9472 60.8303 11.6467C61.3244 11.358 61.7332 10.9798 62.0577 10.5166C62.3751 10.0633 62.6253 9.58184 62.8082 9.07262C62.9876 8.5731 63.1202 8.10867 63.2049 7.67975ZM55.9898 1.51388C56.0826 1.47846 56.1765 1.44538 56.2716 1.41462L55.9898 1.51388ZM53.9927 2.66953C54.545 2.2082 55.1646 1.8408 55.8515 1.56732C55.1646 1.8408 54.545 2.2082 53.9927 2.66953C53.4036 3.15664 52.8881 3.71085 52.4463 4.33217C52.0103 4.94852 51.651 5.59468 51.3682 6.27068C51.0854 6.94667 50.8792 7.61024 50.7496 8.26138C50.6377 8.87275 50.5788 9.49655 50.5729 10.1328C50.5729 10.769 50.6554 11.3779 50.8203 11.9595C50.9853 12.546 51.2533 13.0704 51.6245 13.5326C51.9956 13.9949 52.4875 14.3602 53.1002 14.6286C53.1335 14.6434 53.1672 14.6577 53.2014 14.6717C53.1672 14.6577 53.1335 14.6434 53.1002 14.6286C52.4875 14.3602 51.9956 13.9949 51.6244 13.5326C51.2533 13.0704 50.9852 12.546 50.8203 11.9595C50.6553 11.3779 50.5729 10.769 50.5729 10.1328C50.5788 9.49656 50.6377 8.87276 50.7496 8.26138C50.8792 7.61024 51.0854 6.94667 51.3682 6.27068C51.6509 5.59469 52.0103 4.94852 52.4463 4.33217C52.8881 3.71086 53.4036 3.15664 53.9927 2.66953ZM57.925 13.2419C57.8395 13.2763 57.7532 13.3092 57.6662 13.3404C57.7532 13.3092 57.8395 13.2763 57.925 13.2419ZM56.6967 13.6146C56.6967 13.6146 56.6967 13.6146 56.6968 13.6146C56.7175 13.6103 56.7382 13.6058 56.7589 13.6013C56.7382 13.6058 56.7175 13.6103 56.6967 13.6146ZM58.3934 2.33402C58.3934 2.33402 58.3934 2.33402 58.3934 2.33402C58.3934 2.33402 58.3934 2.33401 58.3934 2.33401C58.3934 2.33401 58.3934 2.33402 58.3934 2.33402ZM58.648 2.34473C59.2279 2.3817 59.7086 2.50239 60.0901 2.7068C60.526 2.93545 60.8618 3.23865 61.0975 3.61641C61.3331 3.9892 61.4863 4.40921 61.557 4.87644C61.6335 5.34367 61.6571 5.81836 61.6277 6.3005C61.5982 6.78264 61.5422 7.2449 61.4598 7.68728C61.4244 7.89107 61.3626 8.15948 61.2742 8.49251C61.1858 8.82056 61.0651 9.15359 60.9119 9.49158C60.7646 9.82958 60.5672 10.1104 60.3198 10.3341C60.2956 10.3559 60.271 10.3766 60.2458 10.3962C60.271 10.3766 60.2956 10.3559 60.3198 10.3341C60.5672 10.1104 60.7646 9.82958 60.9119 9.49159C61.065 9.15359 61.1858 8.82056 61.2742 8.49251C61.3625 8.15948 61.4244 7.89107 61.4597 7.68728C61.5422 7.2449 61.5982 6.78265 61.6276 6.3005C61.6571 5.81836 61.6335 5.34368 61.5569 4.87645C61.4863 4.40922 61.3331 3.98921 61.0974 3.61642C60.8618 3.23865 60.526 2.93545 60.09 2.70681C59.7086 2.50239 59.2279 2.3817 58.648 2.34473ZM56.7253 4.48397C56.6739 4.50393 56.6231 4.5254 56.573 4.54839C56.1783 4.7323 55.8249 4.97585 55.5126 5.27906C55.2063 5.58226 54.9412 5.92025 54.7173 6.29304C54.4993 6.66583 54.3167 7.04857 54.1694 7.44124C54.0222 7.82894 53.9161 8.1893 53.8513 8.52233C53.7924 8.80068 53.7571 9.12625 53.7453 9.49904C53.7394 9.87183 53.7836 10.2322 53.8778 10.5801C53.978 10.9281 54.1547 11.2188 54.408 11.4525C54.5093 11.5437 54.6267 11.6183 54.7603 11.6762C54.6267 11.6183 54.5093 11.5437 54.408 11.4525C54.1547 11.2188 53.978 10.9281 53.8778 10.5801C53.7836 10.2322 53.7394 9.87183 53.7453 9.49904C53.757 9.12625 53.7924 8.80068 53.8513 8.52233C53.9161 8.18931 54.0221 7.82894 54.1694 7.44124C54.3167 7.04857 54.4993 6.66584 54.7173 6.29305C54.9412 5.92026 55.2063 5.58226 55.5126 5.27906C55.8248 4.97586 56.1783 4.7323 56.573 4.54839C56.6231 4.5254 56.6739 4.50393 56.7253 4.48397ZM58.3949 5.6387L57.4259 9.10014C57.4058 9.15235 57.3837 9.20827 57.3595 9.26791C57.2829 9.45182 57.1916 9.6407 57.0856 9.83455C56.9854 10.0234 56.8617 10.1825 56.7144 10.3117C56.696 10.3279 56.6772 10.343 56.6579 10.357C56.6772 10.343 56.696 10.3279 56.7144 10.3117C56.8329 10.2077 56.9361 10.0845 57.0241 9.94187C57.0455 9.90724 57.066 9.87147 57.0856 9.83455C57.1612 9.69622 57.2294 9.56042 57.2901 9.42715L57.2916 9.42384C57.3154 9.37147 57.338 9.3195 57.3595 9.26791C57.3833 9.20914 57.4052 9.15397 57.425 9.10242L57.4259 9.10014L58.3949 5.6387C58.3098 5.61897 58.2202 5.60531 58.126 5.59773C58.0948 5.59522 58.0632 5.59338 58.0311 5.5922M57.9546 5.59159C57.9798 5.59138 58.0053 5.59158 58.0311 5.5922C58.1604 5.59694 58.2817 5.61244 58.3949 5.6387M57.4505 10.8027C57.4804 10.8792 57.5149 10.9541 57.5539 11.0275C57.6835 11.2661 57.8691 11.4599 58.1106 11.609C58.1635 11.6406 58.2197 11.6689 58.2792 11.694C58.2197 11.6689 58.1634 11.6406 58.1106 11.609C57.8802 11.4668 57.7008 11.2839 57.5722 11.0602C57.566 11.0494 57.5599 11.0385 57.5539 11.0275C57.5149 10.9541 57.4804 10.8792 57.4504 10.8027C57.4504 10.8027 57.4504 10.8027 57.4505 10.8027ZM59.0473 11.8402C59.0473 11.8402 59.0473 11.8402 59.0473 11.8402C59.0473 11.8402 59.0473 11.8402 59.0473 11.8402C59.0473 11.8402 59.0473 11.8402 59.0473 11.8402ZM57.1625 9.03903L58.063 5.82241L58.0212 5.82037C57.6699 5.81224 57.4001 5.89373 57.1886 6.05273L57.1861 6.05459C56.948 6.2293 56.7488 6.45775 56.5917 6.74568C56.4284 7.04493 56.3017 7.35611 56.2115 7.67948C56.1187 8.01251 56.0528 8.30326 56.013 8.55252L56.0104 8.56876L56.0051 8.58453C55.975 8.67327 55.9419 8.81664 55.9071 9.0214C55.8796 9.21801 55.8684 9.42522 55.874 9.64324C55.8793 9.85098 55.9193 10.0175 55.9852 10.1487C56.0092 10.1962 56.037 10.2214 56.0637 10.2366C56.0908 10.2519 56.1335 10.2665 56.2043 10.27C56.3202 10.2722 56.4199 10.2392 56.5167 10.1542C56.6392 10.0467 56.7465 9.91062 56.8359 9.74202L56.8372 9.73959C56.9399 9.55196 57.0278 9.37002 57.1012 9.19373C57.1236 9.13859 57.144 9.08704 57.1625 9.03903Z" fill="#67CA71"/>
</g>
</svg>
