<svg width="100" height="24" viewBox="0 0 100 24" fill="none" xmlns="http://www.w3.org/2000/svg">
<path d="M14.7683 9.98574L14.0984 13.7559H5.04681L5.70114 9.98574H14.7683ZM8.58331 0.793959L4.65733 23.4774H0.20166L4.11206 0.793959H8.58331ZM19.5667 0.793959L15.6251 23.4774H11.2162L15.1578 0.793959H19.5667Z" fill="black"/>
<path d="M30.6747 5.06269L22.8072 23.4774H17.9776L28.7896 0.793959H31.8276L30.6747 5.06269ZM30.9886 20.8947L29.6932 4.68878L29.9425 0.793959H32.8247L35.5689 20.8947H30.9886ZM32.8558 15.0178L32.1859 18.8036H22.2152L22.8851 15.0178H32.8558Z" fill="black"/>
<path d="M47.2978 13.5846H42.5929L43.1693 10.2817L46.8148 10.3129C47.4276 10.3025 47.9677 10.1831 48.4351 9.95458C48.9025 9.7157 49.2764 9.37815 49.5568 8.94193C49.8372 8.50571 50.019 7.9812 50.1021 7.36842C50.1748 6.83872 50.1748 6.37654 50.1021 5.98187C50.0398 5.5768 49.858 5.25483 49.5568 5.01595C49.266 4.76668 48.835 4.62646 48.2637 4.5953L45.6931 4.57972L42.4215 23.4774H37.9658L41.8762 0.793959L48.4507 0.809539C49.4062 0.830311 50.2786 0.970524 51.068 1.23018C51.8573 1.47945 52.5273 1.85854 53.0777 2.36747C53.6386 2.866 54.0592 3.48917 54.3396 4.23698C54.6201 4.98478 54.7239 5.86761 54.6512 6.88546C54.5681 8.03833 54.2565 9.00944 53.7165 9.79879C53.1868 10.5778 52.4805 11.1853 51.5977 11.6216C50.7253 12.0578 49.7386 12.307 48.6376 12.3694L47.2978 13.5846ZM45.475 23.4774H31.1655L30.8949 19.7228L45.6931 19.7384C46.3059 19.7176 46.8356 19.5722 47.2822 19.3021C47.7288 19.0321 48.082 18.6686 48.3416 18.2116C48.6013 17.7442 48.7726 17.2093 48.8557 16.6069C48.9181 16.1811 48.9336 15.7449 48.9025 15.2983C48.8713 14.8413 48.7415 14.457 48.513 14.1454C48.2845 13.8234 47.8898 13.6417 47.329 13.6001L43.3095 13.5846L43.9171 10.2817L48.4195 10.2973L49.1829 11.5904C50.1696 11.6216 50.9693 11.8708 51.5821 12.3382C52.2053 12.7952 52.6519 13.3976 52.9219 14.1454C53.192 14.8932 53.2906 15.7397 53.2179 16.6848C53.1245 18.1597 52.735 19.406 52.0495 20.4238C51.3744 21.4313 50.4708 22.1999 49.3387 22.7296C48.2066 23.2489 46.9187 23.4982 45.475 23.4774Z" fill="black"/>
<path d="M62.4426 6.88546L59.9638 23.4774H55.5392L58.0181 6.88546H62.4426Z" fill="black"/>
<path d="M75.9637 0.793959L72.0221 23.4774H67.582L71.5236 0.793959H75.9637ZM85.9948 0.793959C83.7495 2.03956 82.6569 3.13576 81.8059 4.57972H65.51L66.1643 0.793959H85.9948Z" fill="black"/>
<path d="M63.4435 0.793945L62.9077 4.68877H58.4832L59.019 0.793945H63.4435Z" fill="black"/>
<path fill-rule="evenodd" clip-rule="evenodd" d="M99.7658 11.5025L99.7662 11.5006C99.9466 10.5552 100.023 9.59799 99.9942 8.62939C99.9749 7.64754 99.8222 6.69965 99.5351 5.78658C99.2545 4.86507 98.8129 4.03563 98.2074 3.30185C97.6018 2.54864 96.8074 1.95049 95.8306 1.50906C94.8373 1.05224 93.6424 0.820167 92.2646 0.795779C90.8052 0.771315 89.4556 0.991564 88.2227 1.46191C87.0055 1.91852 85.9144 2.55027 84.9508 3.35497C83.996 4.14455 83.1615 5.0425 82.4478 6.04608C81.7466 7.03741 81.1685 8.07685 80.7137 9.1641C80.2608 10.2468 79.9295 11.312 79.721 12.3597L79.7201 12.3643C79.5406 13.345 79.4462 14.3449 79.4368 15.3639V15.3667C79.4368 16.395 79.5701 17.382 79.8381 18.327C80.1088 19.2894 80.5506 20.156 81.1663 20.9228C81.7923 21.7025 82.6221 22.3177 83.6478 22.7672C84.6968 23.2306 85.9603 23.4618 87.4202 23.478C88.2001 23.4862 88.9914 23.4081 89.7934 23.2452C90.6263 23.0859 91.3724 22.8038 92.0258 22.3967L92.2313 22.2686L91.79 19.7275L91.2618 19.9403C90.6661 20.1804 90.0485 20.3678 89.4084 20.5028L89.403 20.504C88.7721 20.6445 88.1385 20.7107 87.5012 20.7034L87.4989 20.7033C86.4496 20.6959 85.6363 20.5138 85.0281 20.1854C84.3996 19.846 83.9292 19.3965 83.6109 18.831C83.279 18.2414 83.0538 17.5889 82.9384 16.871C82.8308 16.1436 82.8082 15.4001 82.8713 14.6399C82.9353 13.8685 83.0403 13.154 83.1854 12.4957L83.1868 12.4885C83.3406 11.7027 83.5853 10.8832 83.9225 10.0299C84.2581 9.1804 84.6807 8.35632 85.1889 7.55996C85.6925 6.76324 86.2892 6.04832 86.9784 5.41395C87.6578 4.78857 88.4311 4.29993 89.299 3.94486L89.3022 3.94354C90.1516 3.58881 91.1062 3.41892 92.1753 3.44106C93.218 3.46342 94.0253 3.64917 94.6269 3.97158L94.6305 3.97344C95.2532 4.30003 95.7291 4.73013 96.0646 5.26797L96.0657 5.26971C96.41 5.81444 96.6374 6.43365 96.7431 7.13168L96.7437 7.13537C96.8606 7.84861 96.8967 8.57387 96.8516 9.31147C96.8059 10.0595 96.7191 10.7753 96.5917 11.459L96.591 11.4628C96.5375 11.771 96.4427 12.1839 96.3046 12.7044C96.1701 13.2034 95.9859 13.7116 95.7514 14.2292L95.7495 14.2335C95.5336 14.7291 95.2498 15.1281 94.9052 15.4396C94.5999 15.7156 94.2501 15.8351 93.8265 15.8181C93.647 15.8075 93.5954 15.7665 93.579 15.7483C93.5267 15.6727 93.4864 15.5622 93.4793 15.4005C93.4709 15.2088 93.4791 15.0171 93.504 14.8252C93.5397 14.6225 93.5746 14.4582 93.6082 14.3301L95.4891 7.52379L95.5903 7.40615L95.5331 7.36459L95.6087 7.09098H95.1543C94.6358 6.72791 94.1005 6.43047 93.5481 6.20112C92.9244 5.93825 92.2143 5.80774 91.4287 5.79909C90.589 5.78235 89.8133 5.93241 89.1118 6.2545L89.1094 6.2556C88.4409 6.56706 87.8452 6.97835 87.3224 7.48609L87.3198 7.48867C86.8142 7.98902 86.3782 8.5454 86.0111 9.15668L86.0091 9.16011C85.6564 9.76327 85.3608 10.3828 85.1223 11.0185C84.8856 11.6415 84.7133 12.2255 84.6073 12.7696C84.5101 13.2296 84.4532 13.7601 84.4343 14.3589L84.4342 14.3636C84.4245 14.9779 84.4972 15.5739 84.6535 16.1509L84.6549 16.1556C84.8272 16.7543 85.1359 17.2687 85.5896 17.6871L85.593 17.6902C86.0964 18.1439 86.7905 18.366 87.6182 18.3922L87.6207 18.3923C88.2754 18.4098 88.87 18.2957 89.3873 18.0357C89.8476 17.8043 90.2541 17.507 90.6067 17.1468C90.829 17.4776 91.122 17.7572 91.4854 17.9816L91.491 17.9849C91.9583 18.2638 92.5406 18.3986 93.2043 18.4158C94.2768 18.4412 95.2247 18.2248 96.0252 17.7515C96.8035 17.2967 97.4475 16.701 97.9586 15.9713C98.4587 15.2572 98.8528 14.4988 99.1409 13.6967C99.4235 12.9098 99.6323 12.1782 99.7658 11.5025ZM88.4001 1.78958C88.5462 1.73379 88.6942 1.68168 88.844 1.63323L88.4001 1.78958ZM85.2541 3.61005C86.1241 2.88333 87.1001 2.30457 88.1822 1.87377C87.1001 2.30457 86.1241 2.88333 85.2541 3.61004C84.3261 4.37738 83.5141 5.25041 82.818 6.22916C82.1313 7.20007 81.5652 8.21796 81.1198 9.28283C80.6743 10.3477 80.3495 11.393 80.1453 12.4187C79.969 13.3818 79.8762 14.3645 79.8669 15.3667C79.8669 16.3689 79.9969 17.3281 80.2567 18.2442C80.5166 19.1681 80.9388 19.9942 81.5235 20.7224C82.1081 21.4506 82.883 22.0261 83.8481 22.4489C83.9006 22.4721 83.9538 22.4947 84.0075 22.5167C83.9538 22.4947 83.9006 22.4721 83.8481 22.4489C82.883 22.0261 82.1081 21.4506 81.5234 20.7224C80.9388 19.9942 80.5165 19.1681 80.2567 18.2442C79.9968 17.3281 79.8669 16.3689 79.8669 15.3667C79.8762 14.3645 79.969 13.3818 80.1453 12.4187C80.3495 11.393 80.6743 10.3477 81.1197 9.28284C81.5652 8.21797 82.1313 7.20007 82.818 6.22916C83.514 5.25042 84.326 4.37738 85.2541 3.61005ZM91.4486 20.2643C91.3138 20.3187 91.1779 20.3704 91.0409 20.4196C91.1779 20.3704 91.3138 20.3187 91.4486 20.2643ZM89.5137 20.8516C89.5137 20.8516 89.5137 20.8516 89.5137 20.8516C89.5464 20.8447 89.579 20.8376 89.6116 20.8305C89.579 20.8376 89.5464 20.8447 89.5137 20.8516ZM92.1864 3.08153C92.1864 3.08153 92.1864 3.08153 92.1864 3.08153C92.1864 3.08153 92.1864 3.08152 92.1864 3.08152C92.1864 3.08152 92.1864 3.08153 92.1864 3.08153ZM92.5874 3.09841C93.501 3.15664 94.2582 3.34676 94.8591 3.66877C95.5458 4.02894 96.0748 4.50657 96.446 5.10165C96.8172 5.68889 97.0585 6.35052 97.1698 7.08654C97.2905 7.82255 97.3276 8.57031 97.2812 9.32981C97.2348 10.0893 97.1466 10.8175 97.0167 11.5144C96.961 11.8354 96.8636 12.2582 96.7244 12.7828C96.5852 13.2996 96.395 13.8242 96.1537 14.3566C95.9217 14.8891 95.6108 15.3315 95.221 15.6838C95.1829 15.7182 95.1441 15.7508 95.1044 15.7817C95.144 15.7508 95.1829 15.7182 95.221 15.6838C95.6108 15.3315 95.9216 14.8891 96.1536 14.3566C96.3949 13.8242 96.5852 13.2996 96.7244 12.7828C96.8636 12.2582 96.961 11.8354 97.0167 11.5144C97.1466 10.8175 97.2348 10.0893 97.2812 9.32982C97.3276 8.57031 97.2905 7.82255 97.1698 7.08654C97.0585 6.35053 96.8172 5.6889 96.446 5.10165C96.0748 4.50657 95.5458 4.02895 94.8591 3.66877C94.2582 3.34676 93.501 3.15664 92.5874 3.09841ZM89.5587 6.46828C89.4776 6.49972 89.3977 6.53355 89.3188 6.56976C88.697 6.85947 88.1402 7.24313 87.6484 7.72076C87.1658 8.19839 86.7482 8.73082 86.3956 9.31807C86.0522 9.90531 85.7645 10.5082 85.5325 11.1268C85.3005 11.7375 85.1334 12.3052 85.0314 12.8298C84.9386 13.2683 84.8829 13.7811 84.8643 14.3684C84.855 14.9556 84.9246 15.5233 85.0731 16.0714C85.2309 16.6195 85.5093 17.0775 85.9083 17.4455C86.0678 17.5893 86.2528 17.7068 86.4633 17.798C86.2528 17.7068 86.0678 17.5893 85.9083 17.4456C85.5093 17.0775 85.2309 16.6195 85.0731 16.0714C84.9246 15.5233 84.855 14.9556 84.8643 14.3684C84.8829 13.7811 84.9385 13.2683 85.0313 12.8298C85.1334 12.3052 85.3005 11.7375 85.5325 11.1268C85.7645 10.5082 86.0522 9.90532 86.3955 9.31807C86.7482 8.73083 87.1658 8.19839 87.6483 7.72077C88.1402 7.24314 88.697 6.85947 89.3188 6.56976C89.3977 6.53355 89.4776 6.49972 89.5587 6.46828ZM92.1888 8.28729L90.6623 13.74C90.6307 13.8222 90.5958 13.9103 90.5577 14.0043C90.4371 14.294 90.2932 14.5915 90.1262 14.8969C89.9684 15.1944 89.7735 15.445 89.5415 15.6486C89.5125 15.674 89.4829 15.6978 89.4525 15.72C89.4828 15.6978 89.5125 15.674 89.5415 15.6486C89.7282 15.4848 89.8908 15.2906 90.0294 15.066C90.0631 15.0114 90.0953 14.9551 90.1262 14.8969C90.2454 14.679 90.3527 14.4651 90.4483 14.2551L90.4507 14.2499C90.4882 14.1674 90.5239 14.0856 90.5577 14.0043C90.5952 13.9117 90.6296 13.8248 90.6609 13.7436L90.6623 13.74L92.1888 8.2873C92.0547 8.25621 91.9135 8.2347 91.7651 8.22275C91.716 8.21881 91.6662 8.21591 91.6156 8.21405M91.4951 8.21309C91.5349 8.21275 91.575 8.21307 91.6157 8.21405C91.8194 8.22152 92.0104 8.24594 92.1888 8.28729M90.701 16.422C90.7482 16.5425 90.8025 16.6606 90.864 16.7761C91.0681 17.1519 91.3605 17.4573 91.7409 17.6922C91.8242 17.7419 91.9127 17.7865 92.0066 17.826C91.9127 17.7865 91.8241 17.7419 91.7409 17.6922C91.378 17.4681 91.0953 17.18 90.8928 16.8277C90.883 16.8107 90.8734 16.7934 90.8639 16.7761C90.8025 16.6606 90.7481 16.5425 90.701 16.422C90.701 16.422 90.701 16.422 90.701 16.422ZM93.2165 18.0563C93.2165 18.0563 93.2165 18.0563 93.2165 18.0563C93.2165 18.0563 93.2165 18.0563 93.2165 18.0563C93.2165 18.0563 93.2165 18.0563 93.2165 18.0563ZM90.2474 13.6437L91.666 8.57669L91.6 8.57348C91.0467 8.56068 90.6216 8.68904 90.2885 8.93951L90.2846 8.94244C89.9095 9.21765 89.5957 9.57753 89.3482 10.0311C89.091 10.5025 88.8914 10.9927 88.7494 11.5021C88.6031 12.0267 88.4993 12.4847 88.4366 12.8774L88.4326 12.9029L88.4242 12.9278C88.3768 13.0676 88.3246 13.2934 88.2698 13.616C88.2264 13.9257 88.2087 14.2521 88.2176 14.5955C88.226 14.9228 88.289 15.1851 88.3929 15.3917C88.4305 15.4666 88.4745 15.5063 88.5164 15.5302C88.5591 15.5544 88.6264 15.5773 88.738 15.5828C88.9206 15.5864 89.0775 15.5344 89.2301 15.4005C89.4231 15.2311 89.5921 15.0167 89.7329 14.7511L89.735 14.7473C89.8967 14.4517 90.0352 14.1651 90.1509 13.8874C90.1861 13.8006 90.2183 13.7194 90.2474 13.6437Z" fill="#67CA71"/>
</svg>
