<svg width="32" height="32" viewBox="0 0 32 32" fill="none" xmlns="http://www.w3.org/2000/svg">
<path d="M23 17.586V14C23 10.783 20.815 8.073 17.855 7.258C17.562 6.52 16.846 6 16 6C15.154 6 14.438 6.52 14.145 7.258C11.185 8.074 9 10.783 9 14V17.586L7.293 19.293C7.19996 19.3857 7.12617 19.4959 7.07589 19.6172C7.0256 19.7386 6.99981 19.8687 7 20V22C7 22.2652 7.10536 22.5196 7.29289 22.7071C7.48043 22.8946 7.73478 23 8 23H24C24.2652 23 24.5196 22.8946 24.7071 22.7071C24.8946 22.5196 25 22.2652 25 22V20C25.0002 19.8687 24.9744 19.7386 24.9241 19.6172C24.8738 19.4959 24.8 19.3857 24.707 19.293L23 17.586ZM23 21H9V20.414L10.707 18.707C10.8 18.6143 10.8738 18.5041 10.9241 18.3828C10.9744 18.2614 11.0002 18.1313 11 18V14C11 11.243 13.243 9 16 9C18.757 9 21 11.243 21 14V18C21 18.266 21.105 18.52 21.293 18.707L23 20.414V21ZM16 26C16.6193 26.0008 17.2235 25.8086 17.7285 25.4502C18.2335 25.0917 18.6143 24.5849 18.818 24H13.182C13.3857 24.5849 13.7665 25.0917 14.2715 25.4502C14.7765 25.8086 15.3807 26.0008 16 26Z" fill="#96A398"/>
</svg>
