<svg width="35" height="35" viewBox="0 0 35 35" fill="none" xmlns="http://www.w3.org/2000/svg">
<g id="bx-walk">
<path id="Vector" d="M18.9587 8.74984C20.5695 8.74984 21.8753 7.444 21.8753 5.83317C21.8753 4.22234 20.5695 2.9165 18.9587 2.9165C17.3478 2.9165 16.042 4.22234 16.042 5.83317C16.042 7.444 17.3478 8.74984 18.9587 8.74984Z" fill="#67CA71"/>
<path id="Vector_2" d="M20.3845 17.8937C20.7417 18.4304 21.2755 18.8373 21.888 19.0414L25.789 20.3423L26.7122 17.5773L22.8111 16.2764L20.3859 12.6379C20.1037 12.2166 19.7174 11.8755 19.2645 11.6477L17.1732 10.6021C16.5511 10.291 15.8379 10.2139 15.1636 10.3848L10.5072 11.5471C10.0985 11.6489 9.71662 11.8379 9.38786 12.1013C9.05911 12.3646 8.79122 12.6959 8.60258 13.0725L5.98633 18.3064L8.59529 19.6116L11.2115 14.3777L14.4534 13.5669L11.8226 25.7381L6.46466 29.4233L8.11695 31.8266L13.4763 28.14C14.0903 27.7171 14.5161 27.0827 14.6722 26.3535L15.4261 22.871L19.0967 25.6244L20.4457 32.3691L23.3055 31.796L21.9565 25.0483C21.8149 24.3454 21.4193 23.7193 20.8453 23.2896L17.6792 20.9154L18.6228 15.2498L20.3845 17.8937Z" fill="#67CA71"/>
</g>
</svg>
