<svg width="71" height="71" viewBox="0 0 71 71" fill="none" xmlns="http://www.w3.org/2000/svg">
<g id="bx-walk">
<path id="Vector" d="M38.4583 17.7498C41.726 17.7498 44.375 15.1009 44.375 11.8332C44.375 8.56549 41.726 5.9165 38.4583 5.9165C35.1906 5.9165 32.5416 8.56549 32.5416 11.8332C32.5416 15.1009 35.1906 17.7498 38.4583 17.7498Z" fill="#B3E5B8"/>
<path id="Vector_2" d="M41.3515 36.299C42.0763 37.3876 43.1591 38.213 44.4016 38.6272L52.3151 41.266L54.1878 35.657L46.2742 33.0182L41.3545 25.6371C40.7821 24.7826 39.9984 24.0906 39.0795 23.6284L34.8373 21.5073C33.5752 20.8764 32.1285 20.7199 30.7607 21.0665L21.3148 23.4243C20.4857 23.6309 19.7111 24.0144 19.0442 24.5485C18.3773 25.0827 17.8338 25.7548 17.4512 26.5187L12.1439 37.1362L17.4364 39.7839L22.7436 29.1664L29.32 27.5216L23.9832 52.2119L13.1143 59.6876L16.466 64.5629L27.3379 57.0842C28.5834 56.2263 29.4472 54.9394 29.7638 53.4603L31.2932 46.3958L38.7393 51.9811L41.4758 65.6634L47.2771 64.5008L44.5406 50.8126C44.2533 49.3866 43.4508 48.1165 42.2864 47.2448L35.8638 42.4286L37.7779 30.9355L41.3515 36.299Z" fill="#B3E5B8"/>
</g>
</svg>
