<svg width="120" height="126" viewBox="0 0 120 126" fill="none" xmlns="http://www.w3.org/2000/svg">
<g opacity="0.6">
<path d="M115.901 28.7387C117.932 31.79 120.967 34.1034 124.449 35.2642L146.63 42.6604L151.878 26.9394L129.698 19.5432L115.909 -1.1445C114.305 -3.53961 112.108 -5.47908 109.533 -6.77454L97.6425 -12.7197C94.1052 -14.4881 90.0501 -14.9266 86.2166 -13.9551L59.7413 -7.34667C57.4175 -6.7677 55.2465 -5.69279 53.3773 -4.19571C51.5081 -2.69862 49.9849 -0.814814 48.9124 1.32641L34.0371 31.0852L48.8709 38.5062L63.7462 8.74746L82.1785 4.13729L67.2204 73.3395L36.7568 94.2926L46.1512 107.957L76.6231 86.9959C80.1139 84.5913 82.5351 80.9844 83.4223 76.8386L87.7091 57.0381L108.579 72.6928L116.249 111.042L132.509 107.783L124.839 69.4176C124.034 65.421 121.785 61.8611 118.521 59.4178L100.52 45.919L105.884 13.7059L115.901 28.7387Z" fill="#152817"/>
</g>
</svg>
